<svg preserveAspectRatio="none" overflow="visible" style="display: block;" width="1293.26" height="1525.64" viewBox="0 0 1293.26 1525.64" fill="none" xmlns="http://www.w3.org/2000/svg">
<g id="Flow Connectors &#194;&#183; Human / AI / Feedback">
<path id="Vector" d="M191.969 155.595V177.823M191.969 246.527V268.755M191.969 337.459V359.687M191.969 428.391V450.619" stroke="#A8A39A" stroke-width="2.02071"/>
<path id="Vector_2" d="M1101.29 252.59V450.62" stroke="#F03D0A" stroke-width="2.02071"/>
<path id="Vector_3" d="M343.523 482.951H939.634" stroke="#F03D0A" stroke-width="2.02071"/>
<path id="Vector_4" d="M191.969 519.323V612.276H464.765" stroke="#A8A39A" stroke-width="2.02071"/>
<path id="Vector_5" d="M939.631 482.951H858.803V612.277H828.492" stroke="#F03D0A" stroke-width="2.02071"/>
<path id="Vector_6" d="M646.629 652.61V684.942M646.629 753.646V785.977M646.629 854.682V893.075" stroke="#151515" stroke-width="2.02071"/>
<path id="Vector_7" d="M646.628 852.741V885.073M646.628 885.073H434.453V901.238M646.628 885.073H879.01V901.238" stroke="#F03D0A" stroke-width="2.02071"/>
<path id="Vector_8" d="M434.453 973.984V1008.34H626.421M879.01 973.984V1008.34H666.835" stroke="#F03D0A" stroke-width="2.02071"/>
<path id="Vector_9" d="M646.629 1086.61V1118.94M646.629 1187.65V1219.98M646.629 1288.68V1321.01M646.629 1389.72V1422.05" stroke="#151515" stroke-width="2.02071"/>
<path id="Vector_10" d="M818.391 1444.81H939.633" stroke="#F03D0A" stroke-width="2.02071"/>
<path id="Vector_11" d="M1101.29 1410.46V313.211H387.977" stroke="#F03D0A" stroke-width="2.02071" stroke-dasharray="8.08 8.08"/>
</g>
</svg>
